<svg
 width="1017px" height="645px">
<path fill-rule="evenodd"  fill="rgb(255, 255, 255)"
 d="M455.196,500.574 L449.739,519.649 L444.283,500.574 L448.829,500.574 L448.829,86.806 L450.648,86.806 L450.648,500.574 L455.196,500.574 Z"/>
<path fill-rule="evenodd"  fill="rgb(255, 255, 255)"
 d="M374.636,83.076 L22.969,358.848 L25.756,362.448 L7.327,369.808 L19.076,353.819 L21.855,357.409 L373.522,81.638 L374.636,83.076 Z"/>
<path fill-rule="evenodd"  fill="rgb(255, 255, 255)"
 d="M501.583,209.583 L496.127,228.658 L490.670,209.583 L495.217,209.583 L495.217,86.806 L497.036,86.806 L497.036,209.583 L501.583,209.583 Z"/>
<path fill-rule="evenodd"  fill="rgb(255, 255, 255)"
 d="M501.583,377.812 L496.127,396.888 L490.670,377.812 L495.217,377.812 L495.217,360.517 L497.036,360.517 L497.036,377.812 L501.583,377.812 Z"/>
<path fill-rule="evenodd"  fill="rgb(255, 255, 255)"
 d="M501.583,501.483 L496.127,520.559 L490.670,501.483 L495.217,501.483 L495.217,457.188 L497.036,457.188 L497.036,501.483 L501.583,501.483 Z"/>
<path fill-rule="evenodd"  fill="rgb(255, 255, 255)"
 d="M11.060,455.390 L5.604,474.465 L0.147,455.390 L4.693,455.390 L4.693,428.095 L6.513,428.095 L6.513,455.390 L11.060,455.390 Z"/>
<path fill-rule="evenodd"  fill="rgb(255, 255, 255)"
 d="M478.844,625.155 L473.388,644.230 L467.931,625.155 L472.478,625.155 L472.478,597.859 L474.297,597.859 L474.297,625.155 L478.844,625.155 Z"/>
<path fill-rule="evenodd"  fill="rgb(255, 255, 255)"
 d="M427.909,616.941 L427.909,644.236 L426.090,644.236 L426.090,616.941 L421.544,616.941 L427.000,597.865 L432.457,616.941 L427.909,616.941 Z"/>
<path fill-rule="evenodd"  fill="rgb(255, 255, 255)"
 d="M1016.042,165.934 L1010.585,185.010 L1005.129,165.934 L1009.675,165.934 L1009.675,138.639 L1011.494,138.639 L1011.494,165.934 L1016.042,165.934 Z"/>
<path fill-rule="evenodd"  fill="rgb(255, 255, 255)"
 d="M989.107,157.721 L989.107,185.016 L987.287,185.016 L987.287,157.721 L982.741,157.721 L988.198,138.645 L993.654,157.721 L989.107,157.721 Z"/>
<path fill-rule="evenodd"  fill="rgb(255, 255, 255)"
 d="M408.808,209.583 L403.352,228.658 L397.895,209.583 L402.442,209.583 L402.442,86.806 L404.261,86.806 L404.261,209.583 L408.808,209.583 Z"/>
<path fill-rule="evenodd"  fill="rgb(255, 255, 255)"
 d="M408.808,501.483 L403.352,520.559 L397.895,501.483 L402.442,501.483 L402.442,401.707 L404.261,401.707 L404.261,501.483 L408.808,501.483 Z"/>
<path fill-rule="evenodd"  fill="rgb(255, 255, 255)"
 d="M236.731,554.210 L217.651,559.665 L217.651,555.120 L94.846,555.120 L94.846,553.301 L217.651,553.301 L217.651,548.755 L236.731,554.210 Z"/>
<path fill-rule="evenodd"  fill="rgb(255, 255, 255)"
 d="M805.740,34.160 L786.072,36.798 L786.730,32.300 L579.803,1.995 L580.067,0.195 L786.993,30.501 L787.651,26.002 L805.740,34.160 Z"/>
<path fill-rule="evenodd"  fill="rgb(255, 255, 255)"
 d="M238.822,527.265 L219.281,523.803 L221.274,519.719 L62.449,442.535 L63.246,440.900 L222.072,518.085 L224.067,513.997 L238.822,527.265 Z"/>
<path fill-rule="evenodd"  fill="rgb(255, 255, 255)"
 d="M799.011,50.459 L798.748,52.247 L592.161,22.130 L591.504,26.601 L573.444,18.493 L593.080,15.872 L592.423,20.342 L799.011,50.459 Z"/>
<path fill-rule="evenodd"  fill="rgb(255, 255, 255)"
 d="M314.227,2.214 L107.630,32.387 L108.286,36.865 L88.649,34.239 L106.710,26.117 L107.367,30.596 L313.964,0.423 L314.227,2.214 Z"/>
<path fill-rule="evenodd"  fill="rgb(255, 255, 255)"
 d="M320.576,18.641 L302.545,26.713 L301.889,22.262 L95.630,52.247 L95.368,50.467 L301.627,20.481 L300.971,16.031 L320.576,18.641 Z"/>
<path fill-rule="evenodd"  fill="rgb(255, 255, 255)"
 d="M344.558,62.358 L94.806,209.533 L97.112,213.427 L77.946,218.443 L91.576,204.079 L93.884,207.975 L343.635,60.800 L344.558,62.358 Z"/>
<path fill-rule="evenodd"  fill="rgb(255, 255, 255)"
 d="M356.665,75.149 L343.043,89.455 L340.747,85.584 L90.557,232.688 L89.638,231.140 L339.828,84.036 L337.534,80.168 L356.665,75.149 Z"/>
<path fill-rule="evenodd"  fill="rgb(255, 255, 255)"
 d="M802.658,218.047 L783.517,213.032 L785.820,209.139 L536.399,61.988 L537.321,60.430 L786.742,207.581 L789.046,203.686 L802.658,218.047 Z"/>
<path fill-rule="evenodd"  fill="rgb(255, 255, 255)"
 d="M790.981,230.742 L790.064,232.290 L540.206,85.210 L537.913,89.081 L524.309,74.778 L543.414,79.795 L541.123,83.663 L790.981,230.742 Z"/>
</svg>
